<?xml version="1.0" encoding="utf-8"?>
<!-- Generator: Adobe Illustrator 24.3.0, SVG Export Plug-In . SVG Version: 6.00 Build 0)  -->
<svg version="1.1" id="Layer_1" xmlns="http://www.w3.org/2000/svg" xmlns:xlink="http://www.w3.org/1999/xlink" x="0px" y="0px"
	 viewBox="0 0 250 250" style="enable-background:new 0 0 250 250;" xml:space="preserve">
<style type="text/css">
	.st0{fill:url(#SVGID_1_);}
	.st1{opacity:0.5;fill:url(#SVGID_2_);}
	.st2{opacity:0.13;clip-path:url(#SVGID_4_);}
	.st3{opacity:0.12;clip-path:url(#SVGID_4_);}
	.st4{fill:url(#SVGID_5_);}
	.st5{clip-path:url(#SVGID_7_);}
	.st6{opacity:0.52;fill:url(#SVGID_8_);}
	.st7{fill:url(#SVGID_9_);}
	.st8{opacity:0.51;}
	.st9{fill:url(#SVGID_10_);}
	.st10{fill:#FFFFFF;}
	.st11{fill:url(#SVGID_11_);}
	.st12{fill:#1F1F1F;}
	.st13{fill:#804E08;}
	.st14{opacity:0.25;}
	.st15{opacity:0.42;}
	.st16{opacity:0.19;}
	.st17{opacity:0.59;}
	.st18{opacity:0.6;}
	.st19{opacity:0.49;}
	.st20{opacity:0.78;}
</style>
<g>
	<linearGradient id="SVGID_1_" gradientUnits="userSpaceOnUse" x1="124.3557" y1="225" x2="124.3557" y2="25">
		<stop  offset="1.530610e-02" style="stop-color:#FFFFFF"/>
		<stop  offset="0.4745" style="stop-color:#E7E7E7"/>
		<stop  offset="0.7749" style="stop-color:#D3D3CC"/>
		<stop  offset="1" style="stop-color:#C8C8BD"/>
	</linearGradient>
	<ellipse class="st0" cx="124.4" cy="125" rx="99.4" ry="100"/>
	
		<radialGradient id="SVGID_2_" cx="125.0494" cy="115.1631" r="88.6564" gradientTransform="matrix(1.0839 0 0 1.091 -11.1901 -0.6392)" gradientUnits="userSpaceOnUse">
		<stop  offset="0.5867" style="stop-color:#604628"/>
		<stop  offset="0.6345" style="stop-color:#84715A"/>
		<stop  offset="0.6855" style="stop-color:#A59889"/>
		<stop  offset="0.7344" style="stop-color:#BFB7AD"/>
		<stop  offset="0.7798" style="stop-color:#D2CEC8"/>
		<stop  offset="0.8203" style="stop-color:#DDDBD7"/>
		<stop  offset="0.852" style="stop-color:#E1E0DD"/>
		<stop  offset="0.9898" style="stop-color:#F0F0EE"/>
	</radialGradient>
	<ellipse class="st1" cx="124.4" cy="125" rx="96.1" ry="96.7"/>
	<g>
		<defs>
			<ellipse id="SVGID_3_" cx="124.4" cy="125" rx="99.4" ry="100"/>
		</defs>
		<clipPath id="SVGID_4_">
			<use xlink:href="#SVGID_3_"  style="overflow:visible;"/>
		</clipPath>
		<g class="st2">
			<image style="overflow:visible;" width="270" height="237" xlink:href="C92C1A4D.png"  transform="matrix(1 0 0 1 -8 -28)">
			</image>
		</g>
		<g class="st3">
			<image style="overflow:visible;" width="149" height="167" xlink:href="C92C1A4F.png"  transform="matrix(1 0 0 1 9 12)">
			</image>
		</g>
	</g>
	<g>
		
			<linearGradient id="SVGID_5_" gradientUnits="userSpaceOnUse" x1="219.2589" y1="77.7713" x2="219.2589" y2="59.379" gradientTransform="matrix(0.9386 0.345 -0.5218 1.4196 27.4742 -19.6812)">
			<stop  offset="1.020410e-02" style="stop-color:#FFFBFB"/>
			<stop  offset="0.2017" style="stop-color:#FAF5F5"/>
			<stop  offset="0.4655" style="stop-color:#ECE6E3"/>
			<stop  offset="0.6633" style="stop-color:#DED6D1"/>
			<stop  offset="0.7651" style="stop-color:#DAD2CD"/>
			<stop  offset="0.8693" style="stop-color:#D0C8C1"/>
			<stop  offset="0.9742" style="stop-color:#BEB5AC"/>
			<stop  offset="1" style="stop-color:#B9B0A6"/>
		</linearGradient>
		<path class="st4" d="M206.4,171.4L179,161.3c-7.1-2.6-10.8-10.7-8.2-17.8h0c2.6-7.2,10.6-10.9,17.7-8.2l27.4,10.2
			c7.1,2.6,10.8,10.7,8.2,17.8l0,0C221.5,170.3,213.6,174.1,206.4,171.4z"/>
		<g>
			<defs>
				<path id="SVGID_6_" d="M206.4,171.4L179,161.3c-7.1-2.6-10.8-10.7-8.2-17.8h0c2.6-7.2,10.6-10.9,17.7-8.2l27.4,10.2
					c7.1,2.6,10.8,10.7,8.2,17.8l0,0C221.5,170.3,213.6,174.1,206.4,171.4z"/>
			</defs>
			<clipPath id="SVGID_7_">
				<use xlink:href="#SVGID_6_"  style="overflow:visible;"/>
			</clipPath>
			<g class="st5">
				<image style="overflow:visible;" width="109" height="104" xlink:href="C92C1A4A.png"  transform="matrix(1 0 0 1 133 97)">
				</image>
			</g>
		</g>
	</g>
	
		<radialGradient id="SVGID_8_" cx="125.0494" cy="115.1631" r="63.4992" gradientTransform="matrix(1.0839 0 0 1.091 -11.1901 -0.6392)" gradientUnits="userSpaceOnUse">
		<stop  offset="0.4337" style="stop-color:#FFFFFF"/>
		<stop  offset="0.5883" style="stop-color:#FDFEFD"/>
		<stop  offset="0.6714" style="stop-color:#F8FAF5"/>
		<stop  offset="0.7376" style="stop-color:#EFF4E7"/>
		<stop  offset="0.7948" style="stop-color:#E2EBD4"/>
		<stop  offset="0.8461" style="stop-color:#D1DFBB"/>
		<stop  offset="0.8934" style="stop-color:#BCD19C"/>
		<stop  offset="0.9375" style="stop-color:#A3BF77"/>
		<stop  offset="0.978" style="stop-color:#87AC4E"/>
		<stop  offset="1" style="stop-color:#76A034"/>
	</radialGradient>
	<ellipse class="st6" cx="124.4" cy="125" rx="68.8" ry="69.3"/>
	<linearGradient id="SVGID_9_" gradientUnits="userSpaceOnUse" x1="124.3556" y1="195.4674" x2="124.3556" y2="54.5327">
		<stop  offset="0" style="stop-color:#FBF9F7"/>
		<stop  offset="0.1528" style="stop-color:#F5F3EF"/>
		<stop  offset="0.3928" style="stop-color:#E6E3D8"/>
		<stop  offset="0.5" style="stop-color:#DDDACC"/>
		<stop  offset="0.5753" style="stop-color:#E9E6DD"/>
		<stop  offset="0.6634" style="stop-color:#F1EEE9"/>
		<stop  offset="0.75" style="stop-color:#F4F1ED"/>
		<stop  offset="0.8364" style="stop-color:#E8E6E0"/>
		<stop  offset="0.9959" style="stop-color:#C9CABE"/>
		<stop  offset="1" style="stop-color:#C8C9BD"/>
	</linearGradient>
	<ellipse class="st7" cx="124.4" cy="125" rx="70" ry="70.5"/>
	<g class="st8">
		
			<radialGradient id="SVGID_10_" cx="124.3557" cy="89.0641" r="55.6199" gradientTransform="matrix(1 0 0 1.0065 0 0)" gradientUnits="userSpaceOnUse">
			<stop  offset="0" style="stop-color:#FFFFFF"/>
			<stop  offset="0.1356" style="stop-color:#FBFCFB"/>
			<stop  offset="0.2732" style="stop-color:#F0F2EF"/>
			<stop  offset="0.4118" style="stop-color:#DDE2DA"/>
			<stop  offset="0.5509" style="stop-color:#C2CBBE"/>
			<stop  offset="0.6893" style="stop-color:#A0AE9A"/>
			<stop  offset="0.7908" style="stop-color:#82957A"/>
			<stop  offset="0.8385" style="stop-color:#6C7C66"/>
			<stop  offset="1" style="stop-color:#262C23"/>
		</radialGradient>
		<path class="st9" d="M54.3,125c0-9.2,1.7-18.4,5.2-26.9c3.5-8.5,8.7-16.4,15.1-22.9c6.5-6.6,14.2-11.8,22.8-15.4
			c8.5-3.6,17.7-5.4,27-5.4c9.2,0,18.5,1.9,27,5.4c8.5,3.6,16.3,8.8,22.8,15.4c6.5,6.6,11.7,14.4,15.1,22.9
			c3.5,8.5,5.2,17.7,5.2,26.9c0-18.4-7.6-36.6-20.5-49.6c-6.5-6.5-14.2-11.7-22.7-15.3c-8.5-3.5-17.6-5.3-26.8-5.3
			c-9.2,0-18.3,1.8-26.8,5.3c-8.5,3.5-16.2,8.7-22.7,15.3C61.9,88.4,54.4,106.6,54.3,125z"/>
	</g>
	<ellipse class="st10" cx="124.4" cy="125" rx="65.9" ry="66.3"/>
	
		<radialGradient id="SVGID_11_" cx="125.0493" cy="115.1631" r="60.0596" gradientTransform="matrix(1.0839 0 0 1.0848 -11.1901 7.471158e-02)" gradientUnits="userSpaceOnUse">
		<stop  offset="0.7806" style="stop-color:#030303"/>
		<stop  offset="0.8095" style="stop-color:#151515"/>
		<stop  offset="0.8674" style="stop-color:#434343"/>
		<stop  offset="0.9481" style="stop-color:#8E8E8E"/>
		<stop  offset="1" style="stop-color:#C1C1C1"/>
	</radialGradient>
	<ellipse class="st11" cx="124.4" cy="125" rx="65.1" ry="65.5"/>
	<ellipse class="st12" cx="124.4" cy="125" rx="60.8" ry="61.2"/>
	<g>
		<ellipse class="st13" cx="125.2" cy="125.4" rx="63.4" ry="63.8"/>
		<g>
			<image style="overflow:visible;" width="195" height="195" xlink:href="C92C1A4B.png"  transform="matrix(1 0 0 1 28 28)">
			</image>
		</g>
		<g class="st14">
			<image style="overflow:visible;" width="89" height="142" xlink:href="C92C1A55.png"  transform="matrix(1 0 0 1 33 52)">
			</image>
		</g>
		<g class="st15">
			<image style="overflow:visible;" width="132" height="175" xlink:href="C92C1A57.png"  transform="matrix(1 0 0 1 83 44)">
			</image>
		</g>
		<g class="st15">
			<image style="overflow:visible;" width="126" height="165" xlink:href="C92C1A5A.png"  transform="matrix(1 0 0 1 83 47)">
			</image>
		</g>
		<g class="st16">
			<image style="overflow:visible;" width="97" height="108" xlink:href="C92C1A5B.png"  transform="matrix(1 0 0 1 41 99)">
			</image>
		</g>
		<g>
			<image style="overflow:visible;" width="130" height="84" xlink:href="C92C1A5D.png"  transform="matrix(1 0 0 1 59 38)">
			</image>
		</g>
		<g class="st17">
			<image style="overflow:visible;" width="96" height="118" xlink:href="135FCD26.png"  transform="matrix(1 0 0 1 67 71)">
			</image>
		</g>
		<g class="st18">
			<image style="overflow:visible;" width="107" height="132" xlink:href="135FCD21.png"  transform="matrix(1 0 0 1 57 63)">
			</image>
		</g>
		<g class="st19">
			<image style="overflow:visible;" width="120" height="145" xlink:href="135FCD22.png"  transform="matrix(1 0 0 1 46 55)">
			</image>
		</g>
		<g class="st17">
			<image style="overflow:visible;" width="95" height="118" xlink:href="135FCD20.png"  transform="matrix(1 0 0 1 89 71)">
			</image>
		</g>
		<g class="st18">
			<image style="overflow:visible;" width="105" height="132" xlink:href="135FCD3E.png"  transform="matrix(1 0 0 1 89 63)">
			</image>
		</g>
		<g class="st19">
			<image style="overflow:visible;" width="116" height="144" xlink:href="135FCD23.png"  transform="matrix(1 0 0 1 89 56)">
			</image>
		</g>
		<g class="st20">
			<image style="overflow:visible;" width="101" height="102" xlink:href="135FCD27.png"  transform="matrix(1 0 0 1 75 80)">
			</image>
		</g>
	</g>
</g>
</svg>
